<?xml version="1.0" encoding="UTF-8" standalone="no"?><!DOCTYPE svg PUBLIC "-//W3C//DTD SVG 1.1//EN" "http://www.w3.org/Graphics/SVG/1.1/DTD/svg11.dtd"><svg width="100%" height="100%" viewBox="0 0 107 228" version="1.1" xmlns="http://www.w3.org/2000/svg" xmlns:xlink="http://www.w3.org/1999/xlink" xml:space="preserve" xmlns:serif="http://www.serif.com/" style="fill-rule:evenodd;clip-rule:evenodd;strokeLinejoin:round;stroke-miterlimit:2;"><g><path d="M28.242,227.468l-28.242,0l0,-9.478l28.242,-0c9.511,-0 18.559,-2.017 27.152,-6.055c8.592,-4.036 15.996,-9.455 22.211,-16.257c6.215,-6.8 11.155,-14.896 14.829,-24.287c3.671,-9.39 5.504,-19.219 5.504,-29.487l0,-141.904l9.011,0l0,141.904c0,11.584 -2.067,22.642 -6.192,33.173c-4.13,10.53 -9.723,19.636 -16.771,27.314c-7.048,7.68 -15.433,13.779 -25.148,18.297c-9.722,4.519 -19.918,6.78 -30.596,6.78Z"/><path d="M28.242,208.512l-28.242,0l0,-9.478l28.242,0c14.348,0 26.548,-5.571 36.6,-16.717c10.052,-11.144 15.078,-24.616 15.078,-40.413l-0,-141.904l9.011,0l-0,141.904c-0,12.024 -2.689,23.148 -8.071,33.37c-5.381,10.224 -12.744,18.32 -22.085,24.287c-9.344,5.969 -19.522,8.951 -30.533,8.951Z"/><path d="M28.242,189.557l-28.242,-0l0,-9.478l28.242,-0c9.341,-0 17.289,-3.729 23.837,-11.189c6.548,-7.459 9.822,-16.455 9.822,-26.986l-0,-141.904l9.011,0l0,141.904c0,13.164 -4.152,24.398 -12.452,33.699c-8.3,9.303 -18.374,13.954 -30.218,13.954Z"/><path d="M28.242,170.601l-28.242,0l0,-9.478l28.242,-0c4.422,-0 8.133,-1.754 11.137,-5.265c3.003,-3.509 4.503,-8.162 4.503,-13.954l0,-141.904l9.012,0l-0,141.904c-0,8.339 -2.378,15.204 -7.134,20.601c-4.755,5.398 -10.596,8.096 -17.518,8.096Z"/><path d="M0,9.193l0,-9.185l52.894,-0.008l-0,9.011l-52.894,0.182Z"/></g></svg>